Coordinates
version=1
nRows=16
nColumns=42
inDegrees=yes

Units are S.I. units (second, meters, Newtons, ...)
If the header above contains a line with 'inDegrees', this indicates whether rotational values are in degrees (yes) or radians (no).

endheader
time	pelvis_tilt	pelvis_list	pelvis_rotation	pelvis_tx	pelvis_ty	pelvis_tz	hip_flexion_r	hip_adduction_r	hip_rotation_r	knee_angle_r	knee_adduction_r	knee_angle_r_beta	ankle_angle_r	subtalar_angle_r	mtp_angle_r	hip_flexion_l	hip_adduction_l	hip_rotation_l	knee_angle_l	knee_adduction_l	knee_angle_l_beta	ankle_angle_l	subtalar_angle_l	mtp_angle_l	lumbar_extension	lumbar_bending	lumbar_rotation	arm_flex_r	arm_add_r	arm_rot_r	elbow_flex_r	pro_sup_r	wrist_flex_r	wrist_dev_r	arm_flex_l	arm_add_l	arm_rot_l	elbow_flex_l	pro_sup_l	wrist_flex_l	wrist_dev_l
      2.43000000	      9.73157796	     -1.43057600	      1.02741314	      0.06428833	      0.90796846	      0.24810981	    -11.67446798	      1.80101023	     -8.40193211	     17.38254783	      9.37109697	      0.30338269	     21.05380519	     16.61441123	     -7.50917993	     20.47244012	     -0.56141223	    -12.97070639	     31.80869476	     -3.40508820	      0.55516645	     11.91495941	      3.89563598	     -7.50917993	    -21.73334129	      7.13388393	     -1.47403984	     18.10818850	    -13.77335116	     -4.72804864	     33.71310698	     90.00000001	      0.00000000	      0.00000000	     -7.06312740	     -5.03940635	    -29.40638558	     39.65600180	     90.00000001	      0.00000000	      0.00000000
      2.44000000	      9.77119916	     -1.34903361	      1.13488175	      0.07137501	      0.90725447	      0.24749603	    -12.52534582	      1.60965509	     -8.32951852	     16.90379436	      9.65929636	      0.29502687	     21.26672792	     16.72146353	     -7.50880410	     20.51095148	     -0.22542090	    -13.52657605	     29.69456782	     -3.57265774	      0.51826798	     11.96374708	      5.46086021	     -7.50880410	    -21.76683581	      7.13191821	     -1.61194554	     18.40373265	    -13.76996844	     -4.28429279	     34.03778583	     90.00000001	      0.00000000	      0.00000000	     -7.10840104	     -5.00054264	    -29.45766734	     39.33128864	     90.00000001	      0.00000000	      0.00000000
      2.45000000	      9.81600590	     -1.30230406	      1.22481091	      0.07855360	      0.90643464	      0.24688897	    -13.35654916	      1.49625254	     -8.08466417	     16.44997105	      9.89014145	      0.28710616	     21.48162002	     16.62948395	     -7.50821381	     20.60439225	      0.02851376	    -14.34358569	     27.86458656	     -3.80270501	      0.48632878	     12.16127664	      7.62974480	     -7.50821381	    -21.80347016	      7.16244660	     -1.72230653	     18.64100996	    -13.80555659	     -3.72575395	     34.41136746	     90.00000001	      0.00000000	      0.00000000	     -7.15656596	     -4.94435284	    -29.52507532	     38.99840733	     90.00000001	      0.00000000	      0.00000000
      2.46000000	      9.55439759	     -1.48736879	      1.39341193	      0.08547769	      0.90481042	      0.24627959	    -13.57664513	      1.67979750	     -8.08670901	     16.49224137	      9.97403328	      0.28784391	     21.62821447	     16.53336090	     -7.50812631	     21.34624692	     -0.07626909	    -14.64239303	     26.87250796	     -3.64220087	      0.46901374	     12.12571331	      7.82166439	     -7.50812631	    -21.50390199	      7.46313316	     -1.88216834	     18.89629251	    -13.72402851	     -3.64975221	     34.74240481	     90.00000001	      0.00000000	      0.00000000	     -7.33841414	     -4.85142586	    -29.47732111	     38.81626632	     90.00000001	      0.00000000	      0.00000000
      2.47000000	      9.59349957	     -1.35695826	      1.56153644	      0.09255510	      0.90395139	      0.24537782	    -14.38020774	      1.58157674	     -7.62625208	     15.99791135	     10.06539969	      0.27921623	     22.25965748	     16.40894288	     -7.50802091	     21.24536494	      0.50817864	    -14.68804435	     25.01646478	     -3.78558316	      0.43661968	     11.88664991	      9.29783483	     -7.50802091	    -21.54875300	      7.42653575	     -2.02441411	     19.05470574	    -13.75553543	     -3.32204054	     35.09047758	     90.00000001	      0.00000000	      0.00000000	     -7.19752931	     -4.82525925	    -29.56321598	     38.15680630	     90.00000001	      0.00000000	      0.00000000
      2.48000000	      9.84759841	     -1.20113317	      1.51340610	      0.10013015	      0.90326414	      0.24478006	    -15.44725092	      1.27745380	     -6.95220581	     15.54823778	     10.45649051	      0.27136794	     22.11538286	     15.68209819	     -7.50769375	     21.09338737	      0.80372494	    -16.12974685	     23.86940323	     -4.11055598	      0.41659968	     12.04523483	     12.12369950	     -7.50769375	    -21.80612045	      7.28614363	     -2.01906536	     19.10051344	    -13.85729412	     -2.58935528	     35.64460533	     90.00000001	      0.00000000	      0.00000000	     -7.22332956	     -4.75210196	    -29.80615533	     37.90467271	     90.00000001	      0.00000000	      0.00000000
      2.49000000	      9.68617652	     -1.34657860	      1.67662312	      0.10730030	      0.90163036	      0.24406762	    -15.75504822	      1.47164984	     -6.80801765	     15.63855762	     10.45497001	      0.27294432	     22.33389206	     15.55513543	     -7.50762754	     21.65658772	      0.82510417	    -16.32314817	     23.43621791	     -4.02523661	      0.40903917	     12.00515462	     12.32678855	     -7.50762754	    -21.61153299	      7.52278232	     -2.17549299	     19.27273118	    -13.76053366	     -2.52452752	     35.93480327	     90.00000001	      0.00000000	      0.00000000	     -7.36903590	     -4.67608556	    -29.77430055	     37.65459718	     90.00000001	      0.00000000	      0.00000000
      2.50000000	      9.62432557	     -1.40948333	      1.85444005	      0.11460661	      0.90017801	      0.24323904	    -16.27238154	      1.62572186	     -6.46441730	     15.51365661	     10.41944455	      0.27076439	     22.82137152	     15.34600976	     -7.50757827	     21.99830575	      1.05256794	    -16.51722376	     22.96884247	     -4.11597829	      0.40088193	     11.91085764	     12.94697585	     -7.50757827	    -21.52103976	      7.66932122	     -2.34697032	     19.35409504	    -13.71606670	     -2.39727467	     36.27065500	     90.00000001	      0.00000000	      0.00000000	     -7.39037901	     -4.63638111	    -29.80857541	     37.15667283	     90.00000001	      0.00000000	      0.00000000
      2.51000000	      9.78073875	     -1.41455370	      1.75084538	      0.12237860	      0.89912266	      0.24282764	    -17.23180831	      1.63201581	     -5.14337345	     14.94298350	     10.66363828	      0.26080426	     22.73079469	     13.66963911	     -7.50721202	     22.12007026	      1.09286451	    -18.08827171	     22.86716589	     -4.54187672	      0.39910734	     12.33628872	     16.48704259	     -7.50721202	    -21.65012244	      7.65885970	     -2.12047306	     19.15486187	    -13.94015901	     -1.66658936	     36.88482707	     90.00000001	      0.00000000	      0.00000000	     -7.25834761	     -4.52780476	    -30.19034308	     36.64957209	     90.00000001	      0.00000000	      0.00000000
      2.52000000	      9.76498267	     -1.46683598	      1.88608767	      0.12995007	      0.89761812	      0.24204566	    -17.78711019	      1.74930024	     -4.86206543	     14.90483789	     10.63992771	      0.26013850	     23.08615485	     13.48620519	     -7.50714936	     22.39994969	      1.29654659	    -18.26359228	     22.95300089	     -4.65120206	      0.40060544	     12.30527755	     16.72483431	     -7.50714936	    -21.58876305	      7.76279128	     -2.22909900	     19.17223075	    -13.87171929	     -1.63567394	     37.15177995	     90.00000001	      0.00000000	      0.00000000	     -7.29602823	     -4.50206656	    -30.20324958	     36.24181860	     90.00000001	      0.00000000	      0.00000000
      2.53000000	      9.76146115	     -1.59731307	      1.86094221	      0.13778045	      0.89613148	      0.24166190	    -18.44494443	      1.94369352	     -3.93936196	     14.62074432	     10.71493054	      0.25518013	     23.03910654	     12.42935851	     -7.50683365	     22.70587940	      1.21202295	    -19.12068134	     23.38945642	     -4.86864334	      0.40822302	     12.62065307	     18.28799059	     -7.50683365	    -21.53608678	      7.87608453	     -2.07883094	     18.97240492	    -13.94342097	     -1.42106365	     37.60402579	     90.00000001	      0.00000000	      0.00000000	     -7.27516555	     -4.41729736	    -30.45005174	     35.77999398	     90.00000001	      0.00000000	      0.00000000
      2.54000000	      9.70068327	     -1.63643419	      1.88684525	      0.14570312	      0.89455371	      0.24101295	    -18.87313588	      1.99068696	     -3.79616042	     14.80758710	     10.67932613	      0.25844115	     23.05729237	     12.40612949	     -7.50681332	     22.78347594	      1.39899054	    -19.08307551	     23.52867937	     -4.85474521	      0.41065292	     12.58895784	     18.27772592	     -7.50681332	    -21.38906130	      7.91130863	     -2.05906400	     18.88441371	    -13.88485438	     -1.41201905	     37.64983613	     90.00000001	      0.00000000	      0.00000000	     -7.44826127	     -4.34474137	    -30.44969827	     35.66241178	     90.00000001	      0.00000000	      0.00000000
      2.55000000	      9.84805553	     -1.59547298	      2.00644615	      0.15377326	      0.89320958	      0.24023349	    -19.71385595	      1.99247894	     -3.66312541	     14.66636681	     10.66284527	      0.25597639	     23.50799951	     12.14788162	     -7.50676672	     22.83790043	      1.69850905	    -19.44334101	     24.24054171	     -5.20978124	      0.42307727	     12.62746869	     18.33992249	     -7.50676672	    -21.47637600	      7.86605189	     -2.16718874	     18.73626705	    -13.80382172	     -1.39581046	     37.97431369	     90.00000001	      0.00000000	      0.00000000	     -7.40892277	     -4.39468708	    -30.52505564	     35.06443800	     90.00000001	      0.00000000	      0.00000000
      2.56000000	      9.77261968	     -1.63516214	      1.97516949	      0.16207556	      0.89165036	      0.23968633	    -20.15536715	      2.02786533	     -3.49665927	     14.84388476	     10.62248706	      0.25907466	     23.50577899	     12.12895172	     -7.50674860	     22.77577535	      1.88686954	    -19.36870137	     24.48727382	     -5.24944442	      0.42738355	     12.59464125	     18.35026391	     -7.50674860	    -21.26641789	      7.86087883	     -2.09182956	     18.52182823	    -13.74382555	     -1.38735570	     37.98359892	     90.00000001	      0.00000000	      0.00000000	     -7.61818950	     -4.32676396	    -30.54685440	     34.91920627	     90.00000001	      0.00000000	      0.00000000
      2.57000000	      9.93965449	     -1.56966744	      2.02505509	      0.17048428	      0.89039142	      0.23905775	    -21.05902245	      1.98301605	     -3.43949337	     14.67015471	     10.58451786	      0.25604250	     23.78525280	     11.89367430	     -7.50669777	     22.76939813	      2.10441723	    -19.84115857	     25.52118713	     -5.61054589	      0.44542874	     12.64836414	     18.29649097	     -7.50669777	    -21.35385049	      7.73695745	     -2.08658530	     18.21573680	    -13.68907460	     -1.41903465	     38.31737844	     90.00000001	      0.00000000	      0.00000000	     -7.52179857	     -4.40140511	    -30.68354895	     34.26384276	     90.00000001	      0.00000000	      0.00000000
      2.58000000	      9.88049245	     -1.57767903	      1.97733832	      0.17904004	      0.88897929	      0.23859352	    -21.53937700	      1.99460290	     -3.26988852	     14.83630271	     10.50154124	      0.25894233	     23.76036300	     11.87224468	     -7.50667660	     22.61594251	      2.31051703	    -19.74523527	     25.90357183	     -5.72902738	      0.45210262	     12.59991876	     18.29554404	     -7.50667660	    -21.14649730	      7.64911846	     -1.99334385	     17.88844896	    -13.62390553	     -1.42267923	     38.28754100	     90.00000001	      0.00000000	      0.00000000	     -7.69969419	     -4.39057600	    -30.73245709	     34.09140222	     90.00000001	      0.00000000	      0.00000000
